<?xml version="1.0" encoding="UTF-8" standalone="no"?><!DOCTYPE svg PUBLIC "-//W3C//DTD SVG 1.1//EN" "http://www.w3.org/Graphics/SVG/1.1/DTD/svg11.dtd"><svg width="100%" height="100%" viewBox="0 0 2000 2000" version="1.1" xmlns="http://www.w3.org/2000/svg" xmlns:xlink="http://www.w3.org/1999/xlink" xml:space="preserve" xmlns:serif="http://www.serif.com/" style="fill-rule:evenodd;clip-rule:evenodd;stroke-linejoin:round;stroke-miterlimit:2;"><g><path d="M729.804,938.125c-7.81,-8.968 -19.262,-13.915 -31.145,-13.456c-11.883,0.459 -22.919,6.276 -30.014,15.82c-25.546,34.363 -61.215,82.341 -78.326,105.359c-6.346,8.536 -8.96,19.28 -7.245,29.777c14.989,91.729 87.678,536.582 87.678,536.582c0,-0 -206.132,-525.665 -249.597,-636.505c-4.964,-12.661 -3.029,-26.989 5.117,-37.878c32.843,-43.904 118.977,-159.047 159.998,-213.882c12.521,-16.738 35.955,-20.742 53.323,-9.111c71.59,47.941 248.071,166.125 323.025,216.319c20.918,14.008 48.221,14.008 69.138,0c89.71,-60.076 323.025,-216.319 323.025,-216.319c17.368,-11.631 40.802,-7.627 53.323,9.111c41.021,54.835 127.155,169.978 159.998,213.882c8.146,10.889 10.082,25.217 5.117,37.878c-43.464,110.84 -249.597,636.505 -249.597,636.505c0,-0 72.69,-444.853 87.678,-536.582c1.716,-10.497 -0.898,-21.241 -7.244,-29.777c-17.112,-23.018 -52.78,-70.996 -78.326,-105.359c-7.095,-9.544 -18.131,-15.361 -30.014,-15.82c-11.884,-0.459 -23.335,4.488 -31.146,13.456c-77.247,88.69 -267.383,306.993 -267.383,306.993l-267.383,-306.993Z" style="fill:#f391ef;"/></g><path d="M914.586,836.359c7.534,5.396 17.442,6.162 25.717,1.991c8.276,-4.172 13.551,-12.593 13.695,-21.859c1.059,-68.409 2.995,-193.486 4.003,-258.567c0.136,-8.781 -4.362,-16.985 -11.838,-21.593c-7.476,-4.607 -16.827,-4.938 -24.61,-0.87c-54.846,28.665 -156.905,82.005 -211.048,110.303c-7.668,4.007 -12.707,11.706 -13.312,20.337c-0.604,8.631 3.313,16.957 10.347,21.995c51.759,37.064 151.933,108.797 207.046,148.263Z" style="fill:#c664ba;"/><path d="M1084.52,836.359c-7.534,5.396 -17.442,6.162 -25.717,1.991c-8.276,-4.172 -13.551,-12.593 -13.695,-21.859c-1.059,-68.409 -2.995,-193.486 -4.003,-258.567c-0.136,-8.781 4.362,-16.985 11.838,-21.593c7.477,-4.607 16.827,-4.938 24.61,-0.87c54.846,28.665 156.905,82.005 211.048,110.303c7.668,4.007 12.707,11.706 13.312,20.337c0.604,8.631 -3.313,16.957 -10.347,21.995c-51.759,37.064 -151.933,108.797 -207.046,148.263Z" style="fill:#c664ba;"/><path d="M1382.85,620.956c5.859,3.064 10.954,7.407 14.905,12.709c13.755,18.453 48.542,65.124 76.829,103.073c8.993,12.066 23.525,18.704 38.534,17.601c15.008,-1.102 28.414,-9.791 35.549,-23.041c12.413,-23.055 25.462,-47.289 33.438,-62.103c4.94,-9.174 6.467,-19.802 4.31,-29.996c-7.212,-34.074 -24.368,-115.135 -34.091,-161.079c-4.148,-19.596 -20.996,-33.925 -41.004,-34.871c-46.782,-2.211 -129.189,-6.107 -163.834,-7.745c-10.37,-0.491 -20.579,2.698 -28.827,9.004c-13.362,10.216 -35.255,26.955 -56.082,42.878c-11.955,9.14 -18.414,23.752 -17.129,38.746c1.285,14.993 10.138,28.292 23.474,35.264c41.946,21.929 93.531,48.897 113.928,59.56Z" style="fill:#b46cc0;"/><path d="M617.149,620.956c-5.859,3.064 -10.954,7.407 -14.905,12.709c-13.755,18.453 -48.542,65.124 -76.829,103.073c-8.993,12.066 -23.525,18.704 -38.534,17.601c-15.008,-1.102 -28.414,-9.791 -35.549,-23.041c-12.413,-23.055 -25.462,-47.289 -33.438,-62.103c-4.94,-9.174 -6.467,-19.802 -4.31,-29.996c7.212,-34.074 24.368,-115.135 34.091,-161.079c4.148,-19.596 20.996,-33.925 41.004,-34.871c46.782,-2.211 129.189,-6.107 163.834,-7.745c10.37,-0.491 20.579,2.698 28.827,9.004c13.362,10.216 35.255,26.955 56.082,42.878c11.955,9.14 18.414,23.752 17.129,38.746c-1.285,14.993 -10.138,28.292 -23.474,35.264c-41.946,21.929 -93.531,48.897 -113.928,59.56Z" style="fill:#b46cc0;"/></svg>